<?xml version="1.0" encoding="UTF-8"?>
<svg xmlns="http://www.w3.org/2000/svg" viewBox="0 0 40 40">
    <path fill="#828895" d="M13.946 19.691c-.237 4.788 4.662 8.042 8.814 5.858 1.93-1.013 3.184-3.005 3.294-5.227.237-4.787-4.662-8.041-8.814-5.857-1.93 1.013-3.184 3.004-3.294 5.226z"/>
    <path fill="#3193f1" d="M22.582 1.544a.764.764 0 0 0-.216.536v7.386c7.843 1.94 10.699 11.873 5.139 17.879a10.422 10.422 0 0 1-5.139 3.045v7.543c.013.559.609.897 1.073.606a.833.833 0 0 0 .157-.132l15.213-16.57a2.812 2.812 0 0 0 0-3.692L23.565 1.607a.693.693 0 0 0-.983-.032zm-6.147.063L1.191 18.176c-.921 1.01-.921 2.62 0 3.661l15.244 16.57a.7.7 0 0 0 1.177-.344.75.75 0 0 0 .022-.161v-7.48c-7.843-1.941-10.699-11.873-5.139-17.879a10.416 10.416 0 0 1 5.139-3.046V2.08a.706.706 0 0 0-.707-.726.707.707 0 0 0-.492.221z"/>
</svg>
